<svg width="10" height="18" viewBox="0 0 10 18" fill="none" xmlns="http://www.w3.org/2000/svg">
<path fill-rule="evenodd" clip-rule="evenodd" d="M4.99989 8.91447C7.45722 8.91447 9.45559 6.91576 9.45559 4.4583C9.45559 1.99956 7.45744 0 4.99989 0C2.54277 0 0.544189 1.99977 0.544189 4.4583C0.544189 6.91576 2.54277 8.91447 4.99989 8.91447ZM4.99989 2.61259C6.0172 2.61259 6.8447 3.44049 6.8447 4.4583C6.8447 5.47525 6.01699 6.30316 4.99989 6.30316C3.98322 6.30316 3.1555 5.47525 3.1555 4.4583C3.15529 3.44028 3.98343 2.61259 4.99989 2.61259ZM9.38968 11.4791C8.5938 11.9797 7.71907 12.3421 6.80246 12.5509L9.29285 15.0438C9.53809 15.2884 9.67592 15.6206 9.67592 15.9671C9.67592 16.3136 9.53809 16.6458 9.29285 16.8904C9.04834 17.1354 8.71649 17.273 8.37045 17.273C8.0244 17.273 7.69255 17.1354 7.44804 16.8904L4.99945 14.4415L2.55236 16.8902C2.22262 17.2202 1.74196 17.3491 1.29144 17.2284C0.840913 17.1077 0.488968 16.7557 0.368178 16.305C0.247388 15.8543 0.376103 15.3734 0.705837 15.0434L3.19665 12.5509C2.28024 12.3419 1.40568 11.9795 0.609864 11.4791C-4.11958e-05 11.0949 -0.183171 10.2887 0.200807 9.67846C0.384853 9.38499 0.678001 9.1768 1.01562 9.09979C1.35324 9.02278 1.70762 9.08326 2.00062 9.26792C3.82453 10.4152 6.17395 10.4161 7.99935 9.26792C8.2924 9.08331 8.64679 9.02285 8.98443 9.09986C9.32206 9.17686 9.61525 9.38502 9.79937 9.67846C10.1832 10.2889 9.99981 11.0951 9.38968 11.4791Z" fill="white"/>
</svg>
