<svg width="16" height="10" viewBox="0 0 16 10" fill="none" xmlns="http://www.w3.org/2000/svg">
<path fill-rule="evenodd" clip-rule="evenodd" d="M15.6329 0.627457C15.7441 0.265951 15.6329 0.000244141 15.1035 0.000244141H13.3531C12.908 0.000244141 12.7028 0.229751 12.5916 0.482782C12.5916 0.482782 11.7015 2.59795 10.4404 3.97182C10.0325 4.36953 9.84705 4.49604 9.6245 4.49604C9.51322 4.49604 9.35218 4.36953 9.35218 4.00802V0.627457C9.35218 0.193552 9.22303 0.000244141 8.85207 0.000244141H6.10142C5.82323 0.000244141 5.65595 0.201596 5.65595 0.392466C5.65595 0.803701 6.28647 0.898649 6.35148 2.05557V4.56844C6.35148 5.11936 6.24946 5.2193 6.02691 5.2193C5.43352 5.2193 3.99006 3.09463 3.13398 0.663657C2.96619 0.191114 2.7979 0.000244141 2.35055 0.000244141H0.60014C0.100023 0.000244141 0 0.229751 0 0.482782C0 0.934726 0.593389 3.17641 2.76302 6.14123C4.20948 8.16584 6.24746 9.2634 8.10189 9.2634C9.21453 9.2634 9.35218 9.01964 9.35218 8.59975V7.0695C9.35218 6.58196 9.45758 6.4847 9.80991 6.4847C10.0695 6.4847 10.5146 6.61121 11.5531 7.58738C12.74 8.74442 12.9356 9.2634 13.6032 9.2634H15.3536C15.8537 9.2634 16.1038 9.01963 15.9595 8.53856C15.8017 8.05907 15.2349 7.36348 14.4831 6.53894C14.0752 6.06883 13.4631 5.56277 13.2777 5.30962C13.018 4.98419 13.0923 4.83951 13.2777 4.55028C13.2777 4.55028 15.4103 1.62178 15.6329 0.627457Z" fill="white"/>
</svg>
